<mxfile host="app.diagrams.net" modified="2024-01-03T16:03:41.118Z" agent="Mozilla/5.0 (Windows NT 10.0; Win64; x64) AppleWebKit/537.36 (KHTML, like Gecko) Chrome/120.0.0.0 Safari/537.36" etag="nDa0ykqosuHy1VZxI5mA" version="22.1.16" type="github">
  <diagram name="Page-1" id="1RVk4KsR5PGaiZHPokZL">
    <mxGraphModel dx="794" dy="1512" grid="1" gridSize="10" guides="1" tooltips="1" connect="1" arrows="1" fold="1" page="1" pageScale="1" pageWidth="850" pageHeight="1100" math="0" shadow="0">
      <root>
        <mxCell id="0" />
        <mxCell id="1" parent="0" />
        <mxCell id="uF8s6PgjlwYvejcAV3IK-3" value="" style="rounded=0;whiteSpace=wrap;html=1;" vertex="1" parent="1">
          <mxGeometry x="40" y="140" width="420" height="540" as="geometry" />
        </mxCell>
        <mxCell id="uF8s6PgjlwYvejcAV3IK-1" value="" style="sketch=0;outlineConnect=0;fontColor=#232F3E;gradientColor=none;strokeColor=#232F3E;fillColor=#ffffff;dashed=0;verticalLabelPosition=bottom;verticalAlign=top;align=center;html=1;fontSize=12;fontStyle=0;aspect=fixed;shape=mxgraph.aws4.resourceIcon;resIcon=mxgraph.aws4.users;" vertex="1" parent="1">
          <mxGeometry x="450" y="-10" width="60" height="60" as="geometry" />
        </mxCell>
        <mxCell id="uF8s6PgjlwYvejcAV3IK-5" value="" style="group" vertex="1" connectable="0" parent="1">
          <mxGeometry x="211" y="180" width="78" height="130" as="geometry" />
        </mxCell>
        <mxCell id="uF8s6PgjlwYvejcAV3IK-2" value="" style="sketch=0;outlineConnect=0;fontColor=#232F3E;gradientColor=none;fillColor=#8C4FFF;strokeColor=none;dashed=0;verticalLabelPosition=bottom;verticalAlign=top;align=center;html=1;fontSize=12;fontStyle=0;aspect=fixed;pointerEvents=1;shape=mxgraph.aws4.network_load_balancer;" vertex="1" parent="uF8s6PgjlwYvejcAV3IK-5">
          <mxGeometry width="78" height="78" as="geometry" />
        </mxCell>
        <mxCell id="uF8s6PgjlwYvejcAV3IK-4" value="Network Load Balancer (NLB)" style="text;html=1;strokeColor=none;fillColor=none;align=center;verticalAlign=middle;whiteSpace=wrap;rounded=0;" vertex="1" parent="uF8s6PgjlwYvejcAV3IK-5">
          <mxGeometry x="9" y="100" width="60" height="30" as="geometry" />
        </mxCell>
        <mxCell id="uF8s6PgjlwYvejcAV3IK-8" value="" style="group" vertex="1" connectable="0" parent="1">
          <mxGeometry x="332" y="530" width="78" height="118" as="geometry" />
        </mxCell>
        <mxCell id="uF8s6PgjlwYvejcAV3IK-6" value="EC2 Instance" style="text;html=1;strokeColor=none;fillColor=none;align=center;verticalAlign=middle;whiteSpace=wrap;rounded=0;" vertex="1" parent="uF8s6PgjlwYvejcAV3IK-8">
          <mxGeometry x="9" y="88" width="60" height="30" as="geometry" />
        </mxCell>
        <mxCell id="uF8s6PgjlwYvejcAV3IK-7" value="" style="sketch=0;points=[[0,0,0],[0.25,0,0],[0.5,0,0],[0.75,0,0],[1,0,0],[0,1,0],[0.25,1,0],[0.5,1,0],[0.75,1,0],[1,1,0],[0,0.25,0],[0,0.5,0],[0,0.75,0],[1,0.25,0],[1,0.5,0],[1,0.75,0]];outlineConnect=0;fontColor=#232F3E;fillColor=#ED7100;strokeColor=#ffffff;dashed=0;verticalLabelPosition=bottom;verticalAlign=top;align=center;html=1;fontSize=12;fontStyle=0;aspect=fixed;shape=mxgraph.aws4.resourceIcon;resIcon=mxgraph.aws4.ec2;" vertex="1" parent="uF8s6PgjlwYvejcAV3IK-8">
          <mxGeometry width="78" height="78" as="geometry" />
        </mxCell>
        <mxCell id="uF8s6PgjlwYvejcAV3IK-9" value="" style="group" vertex="1" connectable="0" parent="1">
          <mxGeometry x="211" y="530" width="78" height="118" as="geometry" />
        </mxCell>
        <mxCell id="uF8s6PgjlwYvejcAV3IK-10" value="EC2 Instance" style="text;html=1;strokeColor=none;fillColor=none;align=center;verticalAlign=middle;whiteSpace=wrap;rounded=0;" vertex="1" parent="uF8s6PgjlwYvejcAV3IK-9">
          <mxGeometry x="9" y="88" width="60" height="30" as="geometry" />
        </mxCell>
        <mxCell id="uF8s6PgjlwYvejcAV3IK-11" value="" style="sketch=0;points=[[0,0,0],[0.25,0,0],[0.5,0,0],[0.75,0,0],[1,0,0],[0,1,0],[0.25,1,0],[0.5,1,0],[0.75,1,0],[1,1,0],[0,0.25,0],[0,0.5,0],[0,0.75,0],[1,0.25,0],[1,0.5,0],[1,0.75,0]];outlineConnect=0;fontColor=#232F3E;fillColor=#ED7100;strokeColor=#ffffff;dashed=0;verticalLabelPosition=bottom;verticalAlign=top;align=center;html=1;fontSize=12;fontStyle=0;aspect=fixed;shape=mxgraph.aws4.resourceIcon;resIcon=mxgraph.aws4.ec2;" vertex="1" parent="uF8s6PgjlwYvejcAV3IK-9">
          <mxGeometry width="78" height="78" as="geometry" />
        </mxCell>
        <mxCell id="uF8s6PgjlwYvejcAV3IK-12" value="" style="group" vertex="1" connectable="0" parent="1">
          <mxGeometry x="60" y="530" width="78" height="118" as="geometry" />
        </mxCell>
        <mxCell id="uF8s6PgjlwYvejcAV3IK-13" value="EC2 Instance" style="text;html=1;strokeColor=none;fillColor=none;align=center;verticalAlign=middle;whiteSpace=wrap;rounded=0;" vertex="1" parent="uF8s6PgjlwYvejcAV3IK-12">
          <mxGeometry x="9" y="88" width="60" height="30" as="geometry" />
        </mxCell>
        <mxCell id="uF8s6PgjlwYvejcAV3IK-14" value="" style="sketch=0;points=[[0,0,0],[0.25,0,0],[0.5,0,0],[0.75,0,0],[1,0,0],[0,1,0],[0.25,1,0],[0.5,1,0],[0.75,1,0],[1,1,0],[0,0.25,0],[0,0.5,0],[0,0.75,0],[1,0.25,0],[1,0.5,0],[1,0.75,0]];outlineConnect=0;fontColor=#232F3E;fillColor=#ED7100;strokeColor=#ffffff;dashed=0;verticalLabelPosition=bottom;verticalAlign=top;align=center;html=1;fontSize=12;fontStyle=0;aspect=fixed;shape=mxgraph.aws4.resourceIcon;resIcon=mxgraph.aws4.ec2;" vertex="1" parent="uF8s6PgjlwYvejcAV3IK-12">
          <mxGeometry width="78" height="78" as="geometry" />
        </mxCell>
        <mxCell id="uF8s6PgjlwYvejcAV3IK-15" value="" style="group" vertex="1" connectable="0" parent="1">
          <mxGeometry x="332" y="360" width="78" height="118" as="geometry" />
        </mxCell>
        <mxCell id="uF8s6PgjlwYvejcAV3IK-16" value="EC2 Instance" style="text;html=1;strokeColor=none;fillColor=none;align=center;verticalAlign=middle;whiteSpace=wrap;rounded=0;" vertex="1" parent="uF8s6PgjlwYvejcAV3IK-15">
          <mxGeometry x="9" y="88" width="60" height="30" as="geometry" />
        </mxCell>
        <mxCell id="uF8s6PgjlwYvejcAV3IK-17" value="" style="sketch=0;points=[[0,0,0],[0.25,0,0],[0.5,0,0],[0.75,0,0],[1,0,0],[0,1,0],[0.25,1,0],[0.5,1,0],[0.75,1,0],[1,1,0],[0,0.25,0],[0,0.5,0],[0,0.75,0],[1,0.25,0],[1,0.5,0],[1,0.75,0]];outlineConnect=0;fontColor=#232F3E;fillColor=#ED7100;strokeColor=#ffffff;dashed=0;verticalLabelPosition=bottom;verticalAlign=top;align=center;html=1;fontSize=12;fontStyle=0;aspect=fixed;shape=mxgraph.aws4.resourceIcon;resIcon=mxgraph.aws4.ec2;" vertex="1" parent="uF8s6PgjlwYvejcAV3IK-15">
          <mxGeometry width="78" height="78" as="geometry" />
        </mxCell>
        <mxCell id="uF8s6PgjlwYvejcAV3IK-18" value="" style="group" vertex="1" connectable="0" parent="1">
          <mxGeometry x="211" y="360" width="78" height="118" as="geometry" />
        </mxCell>
        <mxCell id="uF8s6PgjlwYvejcAV3IK-19" value="EC2 Instance" style="text;html=1;strokeColor=none;fillColor=none;align=center;verticalAlign=middle;whiteSpace=wrap;rounded=0;" vertex="1" parent="uF8s6PgjlwYvejcAV3IK-18">
          <mxGeometry x="9" y="88" width="60" height="30" as="geometry" />
        </mxCell>
        <mxCell id="uF8s6PgjlwYvejcAV3IK-20" value="" style="sketch=0;points=[[0,0,0],[0.25,0,0],[0.5,0,0],[0.75,0,0],[1,0,0],[0,1,0],[0.25,1,0],[0.5,1,0],[0.75,1,0],[1,1,0],[0,0.25,0],[0,0.5,0],[0,0.75,0],[1,0.25,0],[1,0.5,0],[1,0.75,0]];outlineConnect=0;fontColor=#232F3E;fillColor=#ED7100;strokeColor=#ffffff;dashed=0;verticalLabelPosition=bottom;verticalAlign=top;align=center;html=1;fontSize=12;fontStyle=0;aspect=fixed;shape=mxgraph.aws4.resourceIcon;resIcon=mxgraph.aws4.ec2;" vertex="1" parent="uF8s6PgjlwYvejcAV3IK-18">
          <mxGeometry width="78" height="78" as="geometry" />
        </mxCell>
        <mxCell id="uF8s6PgjlwYvejcAV3IK-21" value="" style="group" vertex="1" connectable="0" parent="1">
          <mxGeometry x="60" y="360" width="78" height="118" as="geometry" />
        </mxCell>
        <mxCell id="uF8s6PgjlwYvejcAV3IK-22" value="EC2 Instance" style="text;html=1;strokeColor=none;fillColor=none;align=center;verticalAlign=middle;whiteSpace=wrap;rounded=0;" vertex="1" parent="uF8s6PgjlwYvejcAV3IK-21">
          <mxGeometry x="9" y="88" width="60" height="30" as="geometry" />
        </mxCell>
        <mxCell id="uF8s6PgjlwYvejcAV3IK-23" value="" style="sketch=0;points=[[0,0,0],[0.25,0,0],[0.5,0,0],[0.75,0,0],[1,0,0],[0,1,0],[0.25,1,0],[0.5,1,0],[0.75,1,0],[1,1,0],[0,0.25,0],[0,0.5,0],[0,0.75,0],[1,0.25,0],[1,0.5,0],[1,0.75,0]];outlineConnect=0;fontColor=#232F3E;fillColor=#ED7100;strokeColor=#ffffff;dashed=0;verticalLabelPosition=bottom;verticalAlign=top;align=center;html=1;fontSize=12;fontStyle=0;aspect=fixed;shape=mxgraph.aws4.resourceIcon;resIcon=mxgraph.aws4.ec2;" vertex="1" parent="uF8s6PgjlwYvejcAV3IK-21">
          <mxGeometry width="78" height="78" as="geometry" />
        </mxCell>
        <mxCell id="uF8s6PgjlwYvejcAV3IK-24" value="Availability Zone 1" style="text;html=1;strokeColor=none;fillColor=none;align=center;verticalAlign=middle;whiteSpace=wrap;rounded=0;" vertex="1" parent="1">
          <mxGeometry x="50" y="150" width="60" height="30" as="geometry" />
        </mxCell>
        <mxCell id="uF8s6PgjlwYvejcAV3IK-25" value="" style="rounded=0;whiteSpace=wrap;html=1;" vertex="1" parent="1">
          <mxGeometry x="500" y="140" width="420" height="540" as="geometry" />
        </mxCell>
        <mxCell id="uF8s6PgjlwYvejcAV3IK-26" value="" style="group" vertex="1" connectable="0" parent="1">
          <mxGeometry x="671" y="180" width="78" height="130" as="geometry" />
        </mxCell>
        <mxCell id="uF8s6PgjlwYvejcAV3IK-27" value="" style="sketch=0;outlineConnect=0;fontColor=#232F3E;gradientColor=none;fillColor=#8C4FFF;strokeColor=none;dashed=0;verticalLabelPosition=bottom;verticalAlign=top;align=center;html=1;fontSize=12;fontStyle=0;aspect=fixed;pointerEvents=1;shape=mxgraph.aws4.network_load_balancer;" vertex="1" parent="uF8s6PgjlwYvejcAV3IK-26">
          <mxGeometry width="78" height="78" as="geometry" />
        </mxCell>
        <mxCell id="uF8s6PgjlwYvejcAV3IK-28" value="Network Load Balancer (NLB)" style="text;html=1;strokeColor=none;fillColor=none;align=center;verticalAlign=middle;whiteSpace=wrap;rounded=0;" vertex="1" parent="uF8s6PgjlwYvejcAV3IK-26">
          <mxGeometry x="9" y="100" width="60" height="30" as="geometry" />
        </mxCell>
        <mxCell id="uF8s6PgjlwYvejcAV3IK-29" value="" style="group" vertex="1" connectable="0" parent="1">
          <mxGeometry x="792" y="530" width="78" height="118" as="geometry" />
        </mxCell>
        <mxCell id="uF8s6PgjlwYvejcAV3IK-30" value="EC2 Instance" style="text;html=1;strokeColor=none;fillColor=none;align=center;verticalAlign=middle;whiteSpace=wrap;rounded=0;" vertex="1" parent="uF8s6PgjlwYvejcAV3IK-29">
          <mxGeometry x="9" y="88" width="60" height="30" as="geometry" />
        </mxCell>
        <mxCell id="uF8s6PgjlwYvejcAV3IK-31" value="" style="sketch=0;points=[[0,0,0],[0.25,0,0],[0.5,0,0],[0.75,0,0],[1,0,0],[0,1,0],[0.25,1,0],[0.5,1,0],[0.75,1,0],[1,1,0],[0,0.25,0],[0,0.5,0],[0,0.75,0],[1,0.25,0],[1,0.5,0],[1,0.75,0]];outlineConnect=0;fontColor=#232F3E;fillColor=#ED7100;strokeColor=#ffffff;dashed=0;verticalLabelPosition=bottom;verticalAlign=top;align=center;html=1;fontSize=12;fontStyle=0;aspect=fixed;shape=mxgraph.aws4.resourceIcon;resIcon=mxgraph.aws4.ec2;" vertex="1" parent="uF8s6PgjlwYvejcAV3IK-29">
          <mxGeometry width="78" height="78" as="geometry" />
        </mxCell>
        <mxCell id="uF8s6PgjlwYvejcAV3IK-32" value="" style="group" vertex="1" connectable="0" parent="1">
          <mxGeometry x="671" y="530" width="78" height="118" as="geometry" />
        </mxCell>
        <mxCell id="uF8s6PgjlwYvejcAV3IK-33" value="EC2 Instance" style="text;html=1;strokeColor=none;fillColor=none;align=center;verticalAlign=middle;whiteSpace=wrap;rounded=0;" vertex="1" parent="uF8s6PgjlwYvejcAV3IK-32">
          <mxGeometry x="9" y="88" width="60" height="30" as="geometry" />
        </mxCell>
        <mxCell id="uF8s6PgjlwYvejcAV3IK-34" value="" style="sketch=0;points=[[0,0,0],[0.25,0,0],[0.5,0,0],[0.75,0,0],[1,0,0],[0,1,0],[0.25,1,0],[0.5,1,0],[0.75,1,0],[1,1,0],[0,0.25,0],[0,0.5,0],[0,0.75,0],[1,0.25,0],[1,0.5,0],[1,0.75,0]];outlineConnect=0;fontColor=#232F3E;fillColor=#ED7100;strokeColor=#ffffff;dashed=0;verticalLabelPosition=bottom;verticalAlign=top;align=center;html=1;fontSize=12;fontStyle=0;aspect=fixed;shape=mxgraph.aws4.resourceIcon;resIcon=mxgraph.aws4.ec2;" vertex="1" parent="uF8s6PgjlwYvejcAV3IK-32">
          <mxGeometry width="78" height="78" as="geometry" />
        </mxCell>
        <mxCell id="uF8s6PgjlwYvejcAV3IK-35" value="" style="group" vertex="1" connectable="0" parent="1">
          <mxGeometry x="520" y="530" width="78" height="118" as="geometry" />
        </mxCell>
        <mxCell id="uF8s6PgjlwYvejcAV3IK-36" value="EC2 Instance" style="text;html=1;strokeColor=none;fillColor=none;align=center;verticalAlign=middle;whiteSpace=wrap;rounded=0;" vertex="1" parent="uF8s6PgjlwYvejcAV3IK-35">
          <mxGeometry x="9" y="88" width="60" height="30" as="geometry" />
        </mxCell>
        <mxCell id="uF8s6PgjlwYvejcAV3IK-37" value="" style="sketch=0;points=[[0,0,0],[0.25,0,0],[0.5,0,0],[0.75,0,0],[1,0,0],[0,1,0],[0.25,1,0],[0.5,1,0],[0.75,1,0],[1,1,0],[0,0.25,0],[0,0.5,0],[0,0.75,0],[1,0.25,0],[1,0.5,0],[1,0.75,0]];outlineConnect=0;fontColor=#232F3E;fillColor=#ED7100;strokeColor=#ffffff;dashed=0;verticalLabelPosition=bottom;verticalAlign=top;align=center;html=1;fontSize=12;fontStyle=0;aspect=fixed;shape=mxgraph.aws4.resourceIcon;resIcon=mxgraph.aws4.ec2;" vertex="1" parent="uF8s6PgjlwYvejcAV3IK-35">
          <mxGeometry width="78" height="78" as="geometry" />
        </mxCell>
        <mxCell id="uF8s6PgjlwYvejcAV3IK-38" value="" style="group" vertex="1" connectable="0" parent="1">
          <mxGeometry x="792" y="360" width="78" height="118" as="geometry" />
        </mxCell>
        <mxCell id="uF8s6PgjlwYvejcAV3IK-39" value="EC2 Instance" style="text;html=1;strokeColor=none;fillColor=none;align=center;verticalAlign=middle;whiteSpace=wrap;rounded=0;" vertex="1" parent="uF8s6PgjlwYvejcAV3IK-38">
          <mxGeometry x="9" y="88" width="60" height="30" as="geometry" />
        </mxCell>
        <mxCell id="uF8s6PgjlwYvejcAV3IK-40" value="" style="sketch=0;points=[[0,0,0],[0.25,0,0],[0.5,0,0],[0.75,0,0],[1,0,0],[0,1,0],[0.25,1,0],[0.5,1,0],[0.75,1,0],[1,1,0],[0,0.25,0],[0,0.5,0],[0,0.75,0],[1,0.25,0],[1,0.5,0],[1,0.75,0]];outlineConnect=0;fontColor=#232F3E;fillColor=#ED7100;strokeColor=#ffffff;dashed=0;verticalLabelPosition=bottom;verticalAlign=top;align=center;html=1;fontSize=12;fontStyle=0;aspect=fixed;shape=mxgraph.aws4.resourceIcon;resIcon=mxgraph.aws4.ec2;" vertex="1" parent="uF8s6PgjlwYvejcAV3IK-38">
          <mxGeometry width="78" height="78" as="geometry" />
        </mxCell>
        <mxCell id="uF8s6PgjlwYvejcAV3IK-41" value="" style="group" vertex="1" connectable="0" parent="1">
          <mxGeometry x="671" y="360" width="78" height="118" as="geometry" />
        </mxCell>
        <mxCell id="uF8s6PgjlwYvejcAV3IK-42" value="EC2 Instance" style="text;html=1;strokeColor=none;fillColor=none;align=center;verticalAlign=middle;whiteSpace=wrap;rounded=0;" vertex="1" parent="uF8s6PgjlwYvejcAV3IK-41">
          <mxGeometry x="9" y="88" width="60" height="30" as="geometry" />
        </mxCell>
        <mxCell id="uF8s6PgjlwYvejcAV3IK-43" value="" style="sketch=0;points=[[0,0,0],[0.25,0,0],[0.5,0,0],[0.75,0,0],[1,0,0],[0,1,0],[0.25,1,0],[0.5,1,0],[0.75,1,0],[1,1,0],[0,0.25,0],[0,0.5,0],[0,0.75,0],[1,0.25,0],[1,0.5,0],[1,0.75,0]];outlineConnect=0;fontColor=#232F3E;fillColor=#ED7100;strokeColor=#ffffff;dashed=0;verticalLabelPosition=bottom;verticalAlign=top;align=center;html=1;fontSize=12;fontStyle=0;aspect=fixed;shape=mxgraph.aws4.resourceIcon;resIcon=mxgraph.aws4.ec2;" vertex="1" parent="uF8s6PgjlwYvejcAV3IK-41">
          <mxGeometry width="78" height="78" as="geometry" />
        </mxCell>
        <mxCell id="uF8s6PgjlwYvejcAV3IK-44" value="" style="group" vertex="1" connectable="0" parent="1">
          <mxGeometry x="520" y="360" width="78" height="118" as="geometry" />
        </mxCell>
        <mxCell id="uF8s6PgjlwYvejcAV3IK-45" value="EC2 Instance" style="text;html=1;strokeColor=none;fillColor=none;align=center;verticalAlign=middle;whiteSpace=wrap;rounded=0;" vertex="1" parent="uF8s6PgjlwYvejcAV3IK-44">
          <mxGeometry x="9" y="88" width="60" height="30" as="geometry" />
        </mxCell>
        <mxCell id="uF8s6PgjlwYvejcAV3IK-46" value="" style="sketch=0;points=[[0,0,0],[0.25,0,0],[0.5,0,0],[0.75,0,0],[1,0,0],[0,1,0],[0.25,1,0],[0.5,1,0],[0.75,1,0],[1,1,0],[0,0.25,0],[0,0.5,0],[0,0.75,0],[1,0.25,0],[1,0.5,0],[1,0.75,0]];outlineConnect=0;fontColor=#232F3E;fillColor=#ED7100;strokeColor=#ffffff;dashed=0;verticalLabelPosition=bottom;verticalAlign=top;align=center;html=1;fontSize=12;fontStyle=0;aspect=fixed;shape=mxgraph.aws4.resourceIcon;resIcon=mxgraph.aws4.ec2;" vertex="1" parent="uF8s6PgjlwYvejcAV3IK-44">
          <mxGeometry width="78" height="78" as="geometry" />
        </mxCell>
        <mxCell id="uF8s6PgjlwYvejcAV3IK-47" value="Availability Zone 2" style="text;html=1;strokeColor=none;fillColor=none;align=center;verticalAlign=middle;whiteSpace=wrap;rounded=0;" vertex="1" parent="1">
          <mxGeometry x="510" y="150" width="60" height="30" as="geometry" />
        </mxCell>
        <mxCell id="uF8s6PgjlwYvejcAV3IK-48" value="" style="endArrow=none;html=1;rounded=0;" edge="1" parent="1" source="uF8s6PgjlwYvejcAV3IK-2" target="uF8s6PgjlwYvejcAV3IK-27">
          <mxGeometry width="50" height="50" relative="1" as="geometry">
            <mxPoint x="380" y="310" as="sourcePoint" />
            <mxPoint x="430" y="260" as="targetPoint" />
          </mxGeometry>
        </mxCell>
        <mxCell id="uF8s6PgjlwYvejcAV3IK-49" value="" style="endArrow=none;html=1;rounded=0;" edge="1" parent="1" target="uF8s6PgjlwYvejcAV3IK-1">
          <mxGeometry width="50" height="50" relative="1" as="geometry">
            <mxPoint x="480" y="220" as="sourcePoint" />
            <mxPoint x="430" y="160" as="targetPoint" />
          </mxGeometry>
        </mxCell>
      </root>
    </mxGraphModel>
  </diagram>
</mxfile>
